<svg xmlns="http://www.w3.org/2000/svg" xmlns:xlink="http://www.w3.org/1999/xlink" width="500" zoomAndPan="magnify" viewBox="0 0 375 374.999991" height="500" preserveAspectRatio="xMidYMid meet" version="1.0"><defs><g/><clipPath id="17adae963e"><path d="M 112.5 116 L 262.5 116 L 262.5 224.660156 L 112.5 224.660156 Z M 112.5 116 " clip-rule="nonzero"/></clipPath></defs><g clip-path="url(#17adae963e)"><path fill="#ffffff" d="M 260.25 126.917969 L 249.496094 126.917969 L 249.496094 120.554688 C 249.496094 119.539062 248.792969 118.648438 247.777344 118.457031 C 237.59375 116.292969 227.28125 115.910156 217.097656 117.375 C 207.230469 118.773438 197.269531 121.921875 187.40625 126.726562 C 177.632812 122.621094 167.703125 119.824219 157.902344 118.425781 C 147.78125 116.992188 137.503906 116.992188 127.382812 118.425781 C 126.332031 118.582031 125.539062 119.472656 125.539062 120.554688 L 125.539062 126.917969 L 114.75 126.917969 C 113.570312 126.917969 112.585938 127.871094 112.585938 129.078125 L 112.585938 222.5 C 112.585938 223.675781 113.539062 224.660156 114.75 224.660156 L 260.25 224.660156 C 261.460938 224.660156 262.414062 223.707031 262.414062 222.5 L 262.414062 129.078125 C 262.414062 127.902344 261.460938 126.917969 260.25 126.917969 Z M 217.734375 121.636719 C 226.835938 120.332031 236.066406 120.585938 245.167969 122.335938 L 245.167969 207.867188 C 235.808594 207.039062 226.324219 207.582031 216.96875 209.488281 C 207.898438 211.332031 198.734375 214.546875 189.664062 219 L 189.664062 130.445312 C 198.988281 125.929688 208.441406 122.972656 217.734375 121.636719 Z M 129.832031 122.464844 C 138.96875 121.316406 148.195312 121.414062 157.296875 122.71875 C 166.589844 124.054688 176.042969 126.660156 185.367188 130.542969 L 185.367188 219.03125 C 176.296875 214.609375 167.164062 211.300781 158.09375 209.171875 C 149.789062 207.230469 141.355469 206.246094 133.015625 206.246094 C 131.964844 206.246094 130.914062 206.246094 129.832031 206.277344 Z M 116.882812 131.242188 L 125.472656 131.242188 L 125.472656 208.535156 C 125.472656 209.140625 125.726562 209.679688 126.140625 210.09375 C 126.554688 210.507812 127.160156 210.730469 127.734375 210.699219 C 137.472656 210.1875 147.335938 211.109375 157.042969 213.371094 C 163.949219 214.992188 170.949219 217.3125 177.890625 220.367188 L 116.882812 220.367188 Z M 258.117188 220.367188 L 197.046875 220.367188 C 203.984375 217.378906 210.953125 215.152344 217.859375 213.71875 C 227.566406 211.714844 237.402344 211.269531 247.109375 212.382812 C 247.710938 212.445312 248.316406 212.257812 248.792969 211.84375 C 249.238281 211.429688 249.527344 210.855469 249.527344 210.21875 L 249.527344 131.242188 L 258.117188 131.242188 Z M 258.117188 220.367188 " fill-opacity="1" fill-rule="nonzero"/></g><path fill="#ffffff" d="M 144.28125 162.953125 L 155.421875 162.953125 L 155.421875 192.851562 C 155.421875 194.03125 156.375 195.015625 157.585938 195.015625 C 158.792969 195.015625 159.75 194.0625 159.75 192.851562 L 159.75 162.953125 L 170.886719 162.953125 C 172.066406 162.953125 173.050781 162 173.050781 160.792969 C 173.050781 159.582031 172.097656 158.628906 170.886719 158.628906 L 159.75 158.628906 L 159.75 144.1875 C 159.75 143.011719 158.792969 142.023438 157.585938 142.023438 C 156.40625 142.023438 155.421875 142.980469 155.421875 144.1875 L 155.421875 158.628906 L 144.28125 158.628906 C 143.074219 158.628906 142.117188 159.582031 142.117188 160.792969 C 142.117188 162 143.074219 162.953125 144.28125 162.953125 Z M 144.28125 162.953125 " fill-opacity="1" fill-rule="nonzero"/><g fill="#000000" fill-opacity="0.502"><g transform="translate(161.888787, 273.045337)"><g><path d="M 2.59375 -23.84375 L 4.21875 -21.140625 L -2.90625 -16.828125 L -0.296875 -12.515625 L 6.15625 -16.421875 L 7.78125 -13.75 L 1.328125 -9.84375 L 5.328125 -3.234375 L 2.109375 -1.28125 L -7.75 -17.578125 Z M 2.59375 -23.84375 "/></g></g></g><g fill="#000000" fill-opacity="0.502"><g transform="translate(173.262058, 266.404912)"><g><path d="M 3.53125 -0.984375 C 3.09375 -0.847656 2.675781 -0.816406 2.28125 -0.890625 C 1.894531 -0.960938 1.5625 -1.128906 1.28125 -1.390625 C 1.007812 -1.660156 0.8125 -1.992188 0.6875 -2.390625 C 0.5625 -2.785156 0.535156 -3.164062 0.609375 -3.53125 C 0.679688 -3.894531 0.859375 -4.222656 1.140625 -4.515625 C 1.421875 -4.804688 1.78125 -5.019531 2.21875 -5.15625 C 2.664062 -5.289062 3.085938 -5.320312 3.484375 -5.25 C 3.878906 -5.1875 4.210938 -5.023438 4.484375 -4.765625 C 4.765625 -4.515625 4.96875 -4.191406 5.09375 -3.796875 C 5.28125 -3.191406 5.234375 -2.625 4.953125 -2.09375 C 4.679688 -1.5625 4.207031 -1.191406 3.53125 -0.984375 Z M 3.53125 -0.984375 "/></g></g></g><g fill="#000000" fill-opacity="0.502"><g transform="translate(177.69619, 263.847755)"><g><path d="M 10.421875 -0.078125 C 8.671875 -0.015625 7.113281 -0.328125 5.75 -1.015625 C 4.382812 -1.703125 3.296875 -2.765625 2.484375 -4.203125 C 1.679688 -5.640625 1.242188 -7.429688 1.171875 -9.578125 C 1.097656 -11.722656 1.414062 -13.535156 2.125 -15.015625 C 2.832031 -16.503906 3.84375 -17.632812 5.15625 -18.40625 C 6.46875 -19.1875 8 -19.609375 9.75 -19.671875 C 11.582031 -19.722656 13.148438 -19.410156 14.453125 -18.734375 C 15.753906 -18.066406 16.707031 -17.007812 17.3125 -15.5625 L 14.609375 -13.8125 L 14.28125 -13.796875 C 13.84375 -14.773438 13.269531 -15.460938 12.5625 -15.859375 C 11.851562 -16.265625 10.953125 -16.453125 9.859375 -16.421875 C 8.285156 -16.359375 7.070312 -15.789062 6.21875 -14.71875 C 5.363281 -13.65625 4.972656 -11.988281 5.046875 -9.71875 C 5.128906 -7.445312 5.632812 -5.800781 6.5625 -4.78125 C 7.488281 -3.757812 8.738281 -3.28125 10.3125 -3.34375 C 12.78125 -3.425781 14.25 -4.675781 14.71875 -7.09375 L 15.046875 -7.109375 L 17.875 -5.75 C 17.414062 -3.925781 16.570312 -2.539062 15.34375 -1.59375 C 14.113281 -0.644531 12.472656 -0.140625 10.421875 -0.078125 Z M 10.421875 -0.078125 "/></g></g></g><g fill="#000000" fill-opacity="0.502"><g transform="translate(193.817217, 263.725794)"><g><path d="M 3.53125 1 C 3.09375 0.882812 2.722656 0.691406 2.421875 0.421875 C 2.128906 0.160156 1.929688 -0.148438 1.828125 -0.515625 C 1.734375 -0.878906 1.734375 -1.265625 1.828125 -1.671875 C 1.929688 -2.078125 2.109375 -2.414062 2.359375 -2.6875 C 2.617188 -2.96875 2.941406 -3.160156 3.328125 -3.265625 C 3.710938 -3.367188 4.125 -3.363281 4.5625 -3.25 C 5.019531 -3.144531 5.398438 -2.957031 5.703125 -2.6875 C 6.003906 -2.425781 6.207031 -2.113281 6.3125 -1.75 C 6.414062 -1.382812 6.414062 -1 6.3125 -0.59375 C 6.164062 0.0195312 5.835938 0.476562 5.328125 0.78125 C 4.816406 1.09375 4.21875 1.164062 3.53125 1 Z M 3.53125 1 "/></g></g></g><g fill="#000000" fill-opacity="0.502"><g transform="translate(198.936942, 263.844141)"><g><path d="M 2.15625 1.203125 L 11.46875 -15.40625 L 18.5625 -11.421875 C 19.582031 -10.847656 20.351562 -10.203125 20.875 -9.484375 C 21.40625 -8.773438 21.6875 -8.019531 21.71875 -7.21875 C 21.75 -6.414062 21.539062 -5.613281 21.09375 -4.8125 C 20.675781 -4.070312 20.132812 -3.519531 19.46875 -3.15625 C 18.800781 -2.800781 18.035156 -2.632812 17.171875 -2.65625 L 17.046875 -2.4375 C 17.941406 -1.570312 18.472656 -0.625 18.640625 0.40625 C 18.804688 1.445312 18.59375 2.492188 18 3.546875 C 17.113281 5.128906 15.945312 6.082031 14.5 6.40625 C 13.0625 6.738281 11.394531 6.378906 9.5 5.328125 Z M 14.171875 -5.1875 C 15.691406 -4.320312 16.84375 -4.582031 17.625 -5.96875 C 18.007812 -6.664062 18.109375 -7.296875 17.921875 -7.859375 C 17.742188 -8.421875 17.269531 -8.921875 16.5 -9.359375 L 13.359375 -11.109375 L 11.03125 -6.9375 Z M 10.625 2.53125 C 12.4375 3.539062 13.804688 3.222656 14.734375 1.578125 C 15.660156 -0.0664062 15.21875 -1.394531 13.40625 -2.40625 L 9.671875 -4.5 L 6.890625 0.4375 Z M 10.625 2.53125 "/></g></g></g><g fill="#000000" fill-opacity="0.302"><g transform="translate(163.068646, 274.22518)"><g><path d="M 2.59375 -23.84375 L 4.21875 -21.140625 L -2.90625 -16.828125 L -0.296875 -12.515625 L 6.15625 -16.421875 L 7.78125 -13.75 L 1.328125 -9.84375 L 5.328125 -3.234375 L 2.109375 -1.28125 L -7.75 -17.578125 Z M 2.59375 -23.84375 "/></g></g></g><g fill="#000000" fill-opacity="0.302"><g transform="translate(174.441917, 267.584757)"><g><path d="M 3.53125 -0.984375 C 3.09375 -0.847656 2.675781 -0.816406 2.28125 -0.890625 C 1.894531 -0.960938 1.5625 -1.128906 1.28125 -1.390625 C 1.007812 -1.660156 0.8125 -1.992188 0.6875 -2.390625 C 0.5625 -2.785156 0.535156 -3.164062 0.609375 -3.53125 C 0.679688 -3.894531 0.859375 -4.222656 1.140625 -4.515625 C 1.421875 -4.804688 1.78125 -5.019531 2.21875 -5.15625 C 2.664062 -5.289062 3.085938 -5.320312 3.484375 -5.25 C 3.878906 -5.1875 4.210938 -5.023438 4.484375 -4.765625 C 4.765625 -4.515625 4.96875 -4.191406 5.09375 -3.796875 C 5.28125 -3.191406 5.234375 -2.625 4.953125 -2.09375 C 4.679688 -1.5625 4.207031 -1.191406 3.53125 -0.984375 Z M 3.53125 -0.984375 "/></g></g></g><g fill="#000000" fill-opacity="0.302"><g transform="translate(178.876064, 265.027583)"><g><path d="M 10.421875 -0.078125 C 8.671875 -0.015625 7.113281 -0.328125 5.75 -1.015625 C 4.382812 -1.703125 3.296875 -2.765625 2.484375 -4.203125 C 1.679688 -5.640625 1.242188 -7.429688 1.171875 -9.578125 C 1.097656 -11.722656 1.414062 -13.535156 2.125 -15.015625 C 2.832031 -16.503906 3.84375 -17.632812 5.15625 -18.40625 C 6.46875 -19.1875 8 -19.609375 9.75 -19.671875 C 11.582031 -19.722656 13.148438 -19.410156 14.453125 -18.734375 C 15.753906 -18.066406 16.707031 -17.007812 17.3125 -15.5625 L 14.609375 -13.8125 L 14.28125 -13.796875 C 13.84375 -14.773438 13.269531 -15.460938 12.5625 -15.859375 C 11.851562 -16.265625 10.953125 -16.453125 9.859375 -16.421875 C 8.285156 -16.359375 7.070312 -15.789062 6.21875 -14.71875 C 5.363281 -13.65625 4.972656 -11.988281 5.046875 -9.71875 C 5.128906 -7.445312 5.632812 -5.800781 6.5625 -4.78125 C 7.488281 -3.757812 8.738281 -3.28125 10.3125 -3.34375 C 12.78125 -3.425781 14.25 -4.675781 14.71875 -7.09375 L 15.046875 -7.109375 L 17.875 -5.75 C 17.414062 -3.925781 16.570312 -2.539062 15.34375 -1.59375 C 14.113281 -0.644531 12.472656 -0.140625 10.421875 -0.078125 Z M 10.421875 -0.078125 "/></g></g></g><g fill="#000000" fill-opacity="0.302"><g transform="translate(194.997091, 264.905637)"><g><path d="M 3.53125 1 C 3.09375 0.882812 2.722656 0.691406 2.421875 0.421875 C 2.128906 0.160156 1.929688 -0.148438 1.828125 -0.515625 C 1.734375 -0.878906 1.734375 -1.265625 1.828125 -1.671875 C 1.929688 -2.078125 2.109375 -2.414062 2.359375 -2.6875 C 2.617188 -2.96875 2.941406 -3.160156 3.328125 -3.265625 C 3.710938 -3.367188 4.125 -3.363281 4.5625 -3.25 C 5.019531 -3.144531 5.398438 -2.957031 5.703125 -2.6875 C 6.003906 -2.425781 6.207031 -2.113281 6.3125 -1.75 C 6.414062 -1.382812 6.414062 -1 6.3125 -0.59375 C 6.164062 0.0195312 5.835938 0.476562 5.328125 0.78125 C 4.816406 1.09375 4.21875 1.164062 3.53125 1 Z M 3.53125 1 "/></g></g></g><g fill="#000000" fill-opacity="0.302"><g transform="translate(200.116801, 265.023984)"><g><path d="M 2.15625 1.203125 L 11.46875 -15.40625 L 18.5625 -11.421875 C 19.582031 -10.847656 20.351562 -10.203125 20.875 -9.484375 C 21.40625 -8.773438 21.6875 -8.019531 21.71875 -7.21875 C 21.75 -6.414062 21.539062 -5.613281 21.09375 -4.8125 C 20.675781 -4.070312 20.132812 -3.519531 19.46875 -3.15625 C 18.800781 -2.800781 18.035156 -2.632812 17.171875 -2.65625 L 17.046875 -2.4375 C 17.941406 -1.570312 18.472656 -0.625 18.640625 0.40625 C 18.804688 1.445312 18.59375 2.492188 18 3.546875 C 17.113281 5.128906 15.945312 6.082031 14.5 6.40625 C 13.0625 6.738281 11.394531 6.378906 9.5 5.328125 Z M 14.171875 -5.1875 C 15.691406 -4.320312 16.84375 -4.582031 17.625 -5.96875 C 18.007812 -6.664062 18.109375 -7.296875 17.921875 -7.859375 C 17.742188 -8.421875 17.269531 -8.921875 16.5 -9.359375 L 13.359375 -11.109375 L 11.03125 -6.9375 Z M 10.625 2.53125 C 12.4375 3.539062 13.804688 3.222656 14.734375 1.578125 C 15.660156 -0.0664062 15.21875 -1.394531 13.40625 -2.40625 L 9.671875 -4.5 L 6.890625 0.4375 Z M 10.625 2.53125 "/></g></g></g><g fill="#ffffff" fill-opacity="1"><g transform="translate(160.708942, 271.865464)"><g><path d="M 2.59375 -23.84375 L 4.21875 -21.140625 L -2.90625 -16.828125 L -0.296875 -12.515625 L 6.15625 -16.421875 L 7.78125 -13.75 L 1.328125 -9.84375 L 5.328125 -3.234375 L 2.109375 -1.28125 L -7.75 -17.578125 Z M 2.59375 -23.84375 "/></g></g></g><g fill="#ffffff" fill-opacity="1"><g transform="translate(172.082201, 265.225053)"><g><path d="M 3.53125 -0.984375 C 3.09375 -0.847656 2.675781 -0.816406 2.28125 -0.890625 C 1.894531 -0.960938 1.5625 -1.128906 1.28125 -1.390625 C 1.007812 -1.660156 0.8125 -1.992188 0.6875 -2.390625 C 0.5625 -2.785156 0.535156 -3.164062 0.609375 -3.53125 C 0.679688 -3.894531 0.859375 -4.222656 1.140625 -4.515625 C 1.421875 -4.804688 1.78125 -5.019531 2.21875 -5.15625 C 2.664062 -5.289062 3.085938 -5.320312 3.484375 -5.25 C 3.878906 -5.1875 4.210938 -5.023438 4.484375 -4.765625 C 4.765625 -4.515625 4.96875 -4.191406 5.09375 -3.796875 C 5.28125 -3.191406 5.234375 -2.625 4.953125 -2.09375 C 4.679688 -1.5625 4.207031 -1.191406 3.53125 -0.984375 Z M 3.53125 -0.984375 "/></g></g></g><g fill="#ffffff" fill-opacity="1"><g transform="translate(176.516348, 262.667881)"><g><path d="M 10.421875 -0.078125 C 8.671875 -0.015625 7.113281 -0.328125 5.75 -1.015625 C 4.382812 -1.703125 3.296875 -2.765625 2.484375 -4.203125 C 1.679688 -5.640625 1.242188 -7.429688 1.171875 -9.578125 C 1.097656 -11.722656 1.414062 -13.535156 2.125 -15.015625 C 2.832031 -16.503906 3.84375 -17.632812 5.15625 -18.40625 C 6.46875 -19.1875 8 -19.609375 9.75 -19.671875 C 11.582031 -19.722656 13.148438 -19.410156 14.453125 -18.734375 C 15.753906 -18.066406 16.707031 -17.007812 17.3125 -15.5625 L 14.609375 -13.8125 L 14.28125 -13.796875 C 13.84375 -14.773438 13.269531 -15.460938 12.5625 -15.859375 C 11.851562 -16.265625 10.953125 -16.453125 9.859375 -16.421875 C 8.285156 -16.359375 7.070312 -15.789062 6.21875 -14.71875 C 5.363281 -13.65625 4.972656 -11.988281 5.046875 -9.71875 C 5.128906 -7.445312 5.632812 -5.800781 6.5625 -4.78125 C 7.488281 -3.757812 8.738281 -3.28125 10.3125 -3.34375 C 12.78125 -3.425781 14.25 -4.675781 14.71875 -7.09375 L 15.046875 -7.109375 L 17.875 -5.75 C 17.414062 -3.925781 16.570312 -2.539062 15.34375 -1.59375 C 14.113281 -0.644531 12.472656 -0.140625 10.421875 -0.078125 Z M 10.421875 -0.078125 "/></g></g></g><g fill="#ffffff" fill-opacity="1"><g transform="translate(192.63736, 262.545935)"><g><path d="M 3.53125 1 C 3.09375 0.882812 2.722656 0.691406 2.421875 0.421875 C 2.128906 0.160156 1.929688 -0.148438 1.828125 -0.515625 C 1.734375 -0.878906 1.734375 -1.265625 1.828125 -1.671875 C 1.929688 -2.078125 2.109375 -2.414062 2.359375 -2.6875 C 2.617188 -2.96875 2.941406 -3.160156 3.328125 -3.265625 C 3.710938 -3.367188 4.125 -3.363281 4.5625 -3.25 C 5.019531 -3.144531 5.398438 -2.957031 5.703125 -2.6875 C 6.003906 -2.425781 6.207031 -2.113281 6.3125 -1.75 C 6.414062 -1.382812 6.414062 -1 6.3125 -0.59375 C 6.164062 0.0195312 5.835938 0.476562 5.328125 0.78125 C 4.816406 1.09375 4.21875 1.164062 3.53125 1 Z M 3.53125 1 "/></g></g></g><g fill="#ffffff" fill-opacity="1"><g transform="translate(197.757083, 262.664282)"><g><path d="M 2.15625 1.203125 L 11.46875 -15.40625 L 18.5625 -11.421875 C 19.582031 -10.847656 20.351562 -10.203125 20.875 -9.484375 C 21.40625 -8.773438 21.6875 -8.019531 21.71875 -7.21875 C 21.75 -6.414062 21.539062 -5.613281 21.09375 -4.8125 C 20.675781 -4.070312 20.132812 -3.519531 19.46875 -3.15625 C 18.800781 -2.800781 18.035156 -2.632812 17.171875 -2.65625 L 17.046875 -2.4375 C 17.941406 -1.570312 18.472656 -0.625 18.640625 0.40625 C 18.804688 1.445312 18.59375 2.492188 18 3.546875 C 17.113281 5.128906 15.945312 6.082031 14.5 6.40625 C 13.0625 6.738281 11.394531 6.378906 9.5 5.328125 Z M 14.171875 -5.1875 C 15.691406 -4.320312 16.84375 -4.582031 17.625 -5.96875 C 18.007812 -6.664062 18.109375 -7.296875 17.921875 -7.859375 C 17.742188 -8.421875 17.269531 -8.921875 16.5 -9.359375 L 13.359375 -11.109375 L 11.03125 -6.9375 Z M 10.625 2.53125 C 12.4375 3.539062 13.804688 3.222656 14.734375 1.578125 C 15.660156 -0.0664062 15.21875 -1.394531 13.40625 -2.40625 L 9.671875 -4.5 L 6.890625 0.4375 Z M 10.625 2.53125 "/></g></g></g></svg>